<?xml version="1.0" encoding="utf-8"?>
<!-- Generator: Adobe Illustrator 16.0.3, SVG Export Plug-In . SVG Version: 6.00 Build 0)  -->
<!DOCTYPE svg PUBLIC "-//W3C//DTD SVG 1.1//EN" "http://www.w3.org/Graphics/SVG/1.1/DTD/svg11.dtd">
<svg version="1.1" id="Layer_1" xmlns="http://www.w3.org/2000/svg" xmlns:xlink="http://www.w3.org/1999/xlink" x="0px" y="0px"
	 width="350px" height="166px" viewBox="0 0 350 166" enable-background="new 0 0 350 166" xml:space="preserve">
<path fill="none" stroke="#FFFFFF" stroke-width="3" d="M22.675,3.894C24.26,2.358,26.381,1.5,28.588,1.5h296.373
	c2.221,0,4.354,0.87,5.942,2.423l15.04,14.708c1.635,1.599,2.557,3.79,2.557,6.077v116.909c0,2.357-0.979,4.609-2.703,6.217
	l-15.43,14.383c-1.572,1.467-3.644,2.283-5.796,2.283H28.53c-2.178,0-4.272-0.836-5.852-2.335l-18.53-17.591
	c-1.69-1.605-2.648-3.834-2.648-6.165V27.998c0-2.302,0.934-4.505,2.588-6.106L22.675,3.894z"/>
</svg>
