<svg width="283" height="139" viewBox="0 0 283 139" fill="none" xmlns="http://www.w3.org/2000/svg">
<path opacity="0.5" d="M21.8322 1.13263C22.29 0.725134 22.8816 0.5 23.4944 0.5H263.569C264.206 0.5 264.819 0.742993 265.283 1.1794L281.713 16.6416C282.215 17.114 282.5 17.7728 282.5 18.4622V120.885C282.5 121.595 282.198 122.272 281.669 122.746L264.822 137.861C264.363 138.272 263.768 138.5 263.152 138.5H23.4776C22.8732 138.5 22.2892 138.281 21.8338 137.884L1.35622 120.013C0.812189 119.538 0.5 118.852 0.5 118.13V21.2427C0.5 20.5292 0.804854 19.8498 1.3378 19.3754L21.8322 1.13263Z" stroke="white"/>
</svg>
