<svg width="51" height="23" viewBox="0 0 51 23" fill="none" xmlns="http://www.w3.org/2000/svg">
<path d="M19.3126 17.4974C18.9256 17.1631 18.474 16.9403 17.9938 16.7732C17.6068 16.6409 17.2055 16.5504 16.8113 16.4668C16.7898 16.4599 16.7683 16.4599 16.7468 16.4529C16.7539 16.4181 16.7611 16.3902 16.7683 16.3694C17.0263 15.5408 17.3058 14.7261 17.6283 13.9184C17.9723 13.0411 18.3092 12.1638 18.646 11.2864C18.818 10.8478 18.9829 10.4021 19.1621 9.96347C19.2982 9.63621 19.4487 9.30895 19.5777 8.9817C19.7139 8.63355 19.7928 8.27148 19.7713 7.89548C19.7641 7.6657 19.6996 7.45682 19.4989 7.31059C19.2911 7.15741 19.0617 7.09474 18.8109 7.08778C18.8037 7.08778 18.7894 7.08778 18.7822 7.08778C18.732 7.08778 18.6819 7.08778 18.6317 7.08778C18.3379 7.11563 18.0798 7.234 17.8505 7.39415C15.8151 8.55696 13.0844 12.5606 13.0844 12.5606C13.2564 12.0245 13.3783 11.4675 13.4858 10.9174C13.5288 10.7085 13.5575 10.4996 13.536 10.2838C13.5073 9.94258 13.278 9.69191 12.9411 9.62229C12.7548 9.58051 12.5613 9.6014 12.3749 9.63621C11.8374 9.72673 11.3715 9.95651 10.9558 10.3047C10.834 10.4091 10.7122 10.5275 10.5903 10.6389C10.5903 10.6249 10.5903 10.618 10.5975 10.611C10.8197 9.83814 10.9487 9.05829 11.0275 8.26452C11.049 8.00689 11.049 7.74926 10.9845 7.49163C10.8698 7.03208 10.5975 6.70482 10.1316 6.5586C9.86646 6.47504 9.59411 6.47504 9.3146 6.51682C8.78424 6.59341 8.28972 6.76749 7.81669 7.00423C7.48701 7.17134 7.17166 7.3663 6.88498 7.58911C6.54097 7.86067 6.23995 8.16703 5.95327 8.49429C5.55192 8.94688 5.2079 9.44125 5.00723 10.0192C4.84239 10.4857 4.77788 10.9522 4.93556 11.4326C4.97139 11.551 5.02156 11.6555 5.10756 11.746C5.28674 11.9479 5.52325 12.0315 5.78843 12.0454C6.05361 12.0593 6.29729 11.9897 6.5338 11.8852C6.91365 11.7251 7.22183 11.4744 7.48701 11.1681C7.70919 10.9174 7.88836 10.6389 7.97437 10.3186C7.99587 10.235 8.01737 10.1445 8.01737 10.054C8.01737 10.0192 8.0102 9.99828 7.99587 9.97043C7.9887 9.96347 7.9887 9.96347 7.98153 9.96347C7.97437 9.94954 7.96003 9.94258 7.9457 9.93562C7.77369 9.80332 7.62318 9.97043 7.55868 10.054C7.45834 10.2211 7.32217 10.3743 7.17883 10.5066C7.12866 10.5484 7.07849 10.5901 7.02116 10.6249C6.91365 10.6876 6.77031 10.7364 6.65564 10.6458C6.6198 10.618 6.59114 10.5832 6.56963 10.5414C6.54097 10.43 6.54813 10.2072 6.72731 9.74762C6.74164 9.7128 6.75598 9.68495 6.76314 9.6571C6.82765 9.50392 6.90648 9.3577 6.99249 9.21844C6.99249 9.21844 6.99965 9.20451 7.01399 9.18362C7.15733 8.95385 7.32934 8.74496 7.51568 8.55696C7.80236 8.25059 8.16788 7.93726 8.54056 7.82585C8.56206 7.81889 8.58356 7.81193 8.60506 7.80496C8.63373 7.798 8.66957 7.79104 8.69823 7.78407C8.71974 7.78407 8.74124 7.77711 8.76274 7.77015C9.05658 7.74926 9.28593 7.89548 9.35043 8.15311C9.35043 8.15311 9.35043 8.16007 9.35043 8.16703C9.35043 8.174 9.35043 8.174 9.35043 8.18096C9.37193 8.34111 9.37193 9.07918 8.18938 11.6903C8.11054 11.8574 8.0317 12.0245 7.95287 12.1916C7.58735 12.9715 7.19316 13.7374 6.80615 14.5033C6.54097 15.0325 6.26145 15.5617 5.9461 16.07C5.88877 16.1605 5.88877 16.251 5.96761 16.3276C6.01777 16.3833 6.08228 16.4251 6.15395 16.4599C6.34746 16.5574 6.56247 16.6061 6.77031 16.627C7.01399 16.6548 7.22183 16.5574 7.40817 16.4181C7.61602 16.258 7.76652 16.056 7.9027 15.8402C8.56206 14.8097 9.21426 13.7722 9.87362 12.7417C9.90229 12.6999 9.92379 12.6581 9.95246 12.6233C10.1818 12.3518 10.404 12.0802 10.6763 11.8435C10.8412 11.7042 11.006 11.5789 11.178 11.4535C11.2712 11.3839 11.3715 11.3352 11.4862 11.3143C11.6152 11.2934 11.7012 11.3421 11.7442 11.4605C11.7657 11.5162 11.7729 11.5789 11.7729 11.6415C11.7729 11.8574 11.737 12.0663 11.6725 12.2682C11.5005 12.8043 11.264 13.3196 11.0275 13.8279C10.9128 14.0716 10.7982 14.3153 10.7337 14.5799C10.6333 14.9837 10.7408 15.3319 11.049 15.6174C11.0705 15.6383 11.092 15.6522 11.1135 15.6591C11.3572 15.7497 11.608 15.8123 11.8732 15.7984C12.1026 15.7914 12.2961 15.7079 12.4251 15.5199C12.4681 15.4642 12.5039 15.4015 12.5469 15.3388C12.6043 15.2553 12.6544 15.1717 12.7118 15.0882C12.9124 14.7818 13.1131 14.4754 13.3138 14.176C13.4285 14.002 13.5503 13.8279 13.665 13.6538C14.1165 12.9784 14.5967 12.3169 15.084 11.6694C15.6216 10.9522 16.2236 10.2977 16.8471 9.65014C16.8758 9.62229 16.8973 9.6014 16.926 9.58051V9.57355C16.926 9.57355 17.2986 9.1697 17.5065 9.32288C17.5065 9.32288 17.7 9.42732 17.3201 10.1445C17.3201 10.1515 17.313 10.1515 17.313 10.1584C16.9761 10.8686 16.6321 11.5789 16.3096 12.303C15.8079 13.438 15.4137 14.6147 15.0984 15.8123C15.0554 15.9655 15.0124 16.1117 14.9694 16.2649C14.869 16.2719 14.7759 16.2788 14.6827 16.2788C14.0878 16.2997 13.493 16.3137 12.8981 16.3345C12.6043 16.3415 12.3104 16.3485 12.0166 16.3694C11.5937 16.4042 11.1709 16.446 10.748 16.5017C10.2535 16.5713 9.75895 16.6479 9.27159 16.7454C8.46889 16.8985 7.67335 17.1074 6.89215 17.3511C6.27579 17.5391 5.66659 17.7689 5.0789 18.0265C4.24752 18.3956 3.46632 18.8342 2.70662 19.3286C1.98275 19.8021 1.30905 20.3313 0.757193 20.9997C0.585184 21.2016 0.398842 21.3966 0.269836 21.6264C0.14083 21.8631 0.0333251 22.1068 0.00465706 22.3784C-0.031178 22.7195 0.14083 22.9354 0.484846 22.9841C0.656855 23.012 0.83603 22.9981 1.00804 22.9841C1.16571 22.9702 1.30905 22.9284 1.44523 22.8588C1.78924 22.6847 2.06875 22.441 2.3196 22.1555C2.50594 21.9397 2.68512 21.7099 2.80696 21.4523C2.94313 21.1668 3.11514 20.9022 3.32298 20.6585C3.76733 20.1433 4.30486 19.7394 4.88539 19.3773C5.65942 18.9039 6.4908 18.5696 7.36517 18.319C7.59452 18.2493 7.82386 18.2006 8.06037 18.1449C8.23238 18.1031 8.39722 18.0544 8.56923 18.0196C9.27876 17.8664 10.0026 17.748 10.7193 17.6505C11.2784 17.5739 11.8446 17.5113 12.4107 17.4834C13.1561 17.4486 13.9015 17.4347 14.654 17.4417C14.6684 17.4417 14.6827 17.4417 14.697 17.4417C14.7042 17.4834 14.7114 17.5252 14.7185 17.56C14.7759 17.9082 14.8332 18.2563 14.9479 18.5905C15.0625 18.9178 15.2202 19.2242 15.4711 19.4748C15.9799 19.9762 16.5819 20.3173 17.2986 20.4566C17.7287 20.5402 18.1658 20.5402 18.5887 20.4218C19.0904 20.2825 19.4989 20.011 19.7784 19.5793C19.9791 19.2799 20.0579 18.9526 19.9791 18.5975C19.8859 18.1588 19.6566 17.7968 19.3126 17.4974ZM18.3594 18.9805C18.302 19.071 18.2017 19.1406 18.0942 19.1893C17.5782 19.433 17.0836 19.1754 16.9331 19.0779C16.9188 19.071 16.9045 19.064 16.8973 19.0501L16.8901 19.0431C16.3383 18.6045 16.5389 17.7271 16.5389 17.7271C16.5604 17.7341 16.5819 17.7411 16.6034 17.7411C16.9403 17.8316 18.5815 18.2772 18.3594 18.9805Z" fill="white"/>
<path d="M50.6358 9.23168C50.6358 9.21776 50.6358 9.19687 50.6358 9.18294V9.17598C50.6358 9.15509 50.6215 9.12724 50.6143 9.10635C50.6143 9.10635 50.6143 9.10635 50.6143 9.09939C50.4925 8.86265 49.9693 8.84176 49.9693 8.84176C49.4031 8.79998 48.7509 9.08546 48.5359 9.57287C48.0342 10.7287 47.3676 11.7871 46.5076 12.7271C46.2209 13.0404 45.9127 13.3468 45.4612 13.4512C45.2605 13.5 45.153 13.4373 45.2032 13.2354C45.2534 13.0265 45.2964 12.8106 45.3824 12.6157C45.8984 11.4111 46.4288 10.2135 46.9519 9.01583C47.0738 8.73731 46.995 8.59109 46.7011 8.5145C46.0919 8.36132 45.3537 8.68857 45.0957 9.23864C44.981 9.48235 44.8664 9.72605 44.7517 9.97672C44.6728 10.1508 44.5868 10.3179 44.508 10.492C44.4005 10.7426 44.3002 10.9794 44.1927 11.1952C44.1855 11.2161 44.1783 11.237 44.164 11.2509L44.1568 11.2579C44.1425 11.2857 44.1281 11.3136 44.1138 11.3414C44.1138 11.3414 43.7411 12.1491 43.1104 12.8803C43.1033 12.8872 43.0961 12.8942 43.0889 12.9011C43.0459 12.9499 42.9958 13.0056 42.9456 13.0543C42.6947 13.3189 42.4152 13.5557 42.1071 13.7367C42.0497 13.7715 41.9995 13.7994 41.9422 13.8272C41.935 13.8272 41.935 13.8342 41.9279 13.8342C41.9207 13.8342 41.9207 13.8342 41.9135 13.8411C41.763 13.9108 41.6269 13.9665 41.4979 14.0013C40.8313 14.2102 40.4443 14.05 40.258 13.9177C40.2508 13.9108 40.2365 13.9038 40.2293 13.8968C40.1576 13.8411 40.1218 13.7924 40.1218 13.7924C39.9856 13.6253 39.9283 13.3746 39.9426 13.0474C39.9426 13.0404 39.9498 13.0265 39.957 13.0126C39.9856 12.9986 39.9928 12.9917 40.0071 12.9917C40.0788 12.9847 40.1505 12.9847 40.2221 12.9847C41.1825 12.922 42.0712 12.6783 42.8094 12.0377C43.5333 11.4111 43.8415 10.6173 43.7196 9.68427C43.6121 8.84872 42.8166 8.39613 41.8347 8.58413C40.8313 8.77213 40.0573 9.3222 39.4409 10.0881C38.6096 11.1256 38.1007 12.2814 38.1294 13.6183C38.1365 14.0361 38.2512 14.3842 38.4447 14.6697L38.2727 14.6488C37.3983 14.3355 36.8536 13.2841 36.696 12.922C36.524 12.5182 36.3949 12.0934 36.2659 11.6687C36.2516 11.62 36.2874 11.5225 36.3233 11.4946C38.3945 10.4293 38.4375 10.2135 38.4375 10.2135C38.6239 10.0115 38.7386 9.76783 38.8031 9.46146C38.8604 9.18294 38.9034 8.8905 38.6526 8.69554C38.3874 8.49361 38.0935 8.62591 37.8642 8.77909C37.2908 9.14813 36.7103 9.5102 36.1943 9.94886C35.6066 10.4502 35.0834 11.0281 34.5315 11.5712C34.5315 11.5712 35.4346 9.00887 36.1728 7.63717C36.2014 7.62325 36.2301 7.60932 36.2659 7.5954H36.2731L36.2874 7.58843L36.3018 7.58147C36.4666 7.48399 36.696 7.35866 37.0041 7.2194H37.0113H37.0185C38.0075 6.67629 39.3621 5.74326 40.2293 4.3646L40.4013 4.07912C40.9818 3.09038 41.161 2.34535 41.161 1.8092C41.161 1.48891 41.0965 1.24521 41.0248 1.06417V1.05721V1.04328L41.0177 1.02936C41.0177 1.02239 40.9747 0.910987 40.8672 0.778692C40.8242 0.722988 40.7955 0.695137 40.7883 0.688174L40.7525 0.653359C40.7453 0.646396 40.731 0.63247 40.7167 0.618545L40.6522 0.555878V0.562841C40.4801 0.430546 40.2436 0.326102 39.9355 0.326102C39.4266 0.326102 38.7457 0.604619 37.8355 1.46106C37.8284 1.46802 35.6424 3.82149 34.6175 6.70414C32.4029 7.35866 31.2849 6.63451 30.8979 6.27244C30.0593 5.40904 29.8586 4.49689 29.873 3.8006C29.9088 3.32712 29.9948 2.9372 30.1095 2.6169C30.1238 2.57513 30.1382 2.53335 30.1597 2.49853C30.3102 2.10861 30.5108 1.83009 30.7043 1.62817C31.206 1.14773 31.7937 1.09899 32.0446 1.10595C32.0876 1.10595 32.1306 1.10595 32.1736 1.11291C33.1411 1.34965 33.22 1.99024 33.22 2.08076C33.22 2.10861 33.22 2.13646 33.22 2.16431C33.1483 2.90238 32.4961 3.13912 32.4961 3.13912C32.3886 3.17394 32.2883 3.20875 32.2094 3.24357H32.2022C31.7292 3.45245 31.6074 3.69616 31.5859 3.86327C31.5859 3.87719 31.5859 3.89808 31.5859 3.91201V3.91897C31.5859 4.00949 31.6146 4.06519 31.6146 4.06519C31.6647 4.22534 31.7722 4.29497 31.8941 4.32978C32.0016 4.35764 32.1162 4.35067 32.2166 4.32978C32.2166 4.32978 32.2237 4.32978 32.2381 4.32978C32.3169 4.31586 32.3886 4.29497 32.4173 4.28801C32.4818 4.26712 32.5534 4.24623 32.6323 4.21838C32.6538 4.21141 32.6681 4.20445 32.6896 4.19749C32.7326 4.18356 32.7756 4.16267 32.8186 4.14178C32.8329 4.13482 32.8473 4.12786 32.8616 4.1209C33.1483 3.9886 33.4708 3.77275 33.7002 3.44549C33.7503 3.38283 33.8005 3.3132 33.8435 3.24357C33.9152 3.13216 33.9653 3.02075 34.0155 2.90935L34.0227 2.90238V2.89542C34.1158 2.67957 34.166 2.45676 34.1803 2.22698C34.1947 2.02506 34.1875 1.83009 34.1517 1.63513C34.123 1.47498 34.0657 1.3218 33.994 1.17558C33.8077 0.799581 33.5066 0.514101 33.1411 0.284324C32.9835 0.186843 32.8043 0.124177 32.6179 0.0754365C32.3098 -0.00811864 31.9872 -0.0150816 31.6576 0.0197331C31.4712 0.0406218 31.2849 0.0754364 31.1057 0.145066C30.9552 0.200769 30.8118 0.24951 30.6685 0.326102C30.5252 0.402694 30.3962 0.500175 30.2743 0.597656C30.2457 0.618545 30.217 0.646396 30.1812 0.674248L30.1382 0.7021L30.131 0.709063C29.9518 0.855284 29.7941 1.02239 29.6651 1.20343C29.4931 1.44713 29.3139 1.69083 29.1849 1.96239C29.1133 2.10861 29.0559 2.26179 29.0129 2.42194C28.9556 2.6169 28.8983 2.81187 28.8481 3.01379C28.7908 3.2366 28.7693 3.45942 28.7549 3.68223C28.7334 4.02341 28.7478 4.3646 28.8051 4.69882C28.8051 4.69882 28.9054 6.66236 30.3962 7.74162C30.5037 7.83213 30.6255 7.91569 30.7617 7.99228C31.0985 8.18028 31.5071 8.31954 32.0016 8.37524C32.1664 8.39613 32.3384 8.40309 32.5176 8.40309C32.8831 8.40309 33.2916 8.36132 33.7432 8.27776C33.564 8.91139 32.4244 12.8454 30.7187 13.7576C30.69 13.7645 30.6613 13.7715 30.6327 13.7785C30.2958 13.8272 30.26 13.5208 30.303 13.2005C30.4535 12.5948 30.6542 12.0029 30.7975 11.3972C30.948 10.7426 31.0842 10.0742 31.1415 9.40576C31.1845 8.86961 30.8405 8.6468 30.303 8.74428C29.8156 8.8348 29.4286 9.09242 29.0703 9.40576C28.1959 10.1578 27.5509 11.0908 26.8987 12.0099C26.8342 12.1074 26.7625 12.2049 26.698 12.2954C26.7267 12.0726 26.8055 11.8846 26.8772 11.6966C27.1925 10.861 27.5007 10.0185 27.816 9.18294C27.9092 8.93228 27.8017 8.78605 27.5437 8.73035C26.913 8.57717 26.0171 9.03672 25.8164 9.62857C25.7591 9.78872 25.7089 9.94886 25.6516 10.109C25.4509 10.2622 25.1714 10.3597 24.8704 10.4154C24.8346 9.43361 24.168 8.7582 23.1503 8.65376C22.4981 8.59109 21.8961 8.74428 21.3729 9.12028C19.832 10.2274 19.0365 11.7244 19.0006 13.5835C18.9791 14.5722 19.5166 15.1989 20.4412 15.3939C21.0002 15.5122 21.5592 15.4426 22.0609 15.1711C23.5373 14.3842 24.3257 13.1588 24.6912 11.6826C24.8346 11.6548 24.9994 11.6409 25.1427 11.6269C25.0209 11.996 24.8991 12.372 24.7844 12.741C24.5837 13.3885 24.4332 14.05 24.2899 14.7115C24.2469 14.9065 24.2755 15.0736 24.34 15.2059L24.3329 15.2128C24.3329 15.2128 24.34 15.2268 24.3544 15.2476C24.3902 15.3103 24.4404 15.366 24.5049 15.4078C24.6554 15.5262 24.9062 15.6236 25.2718 15.4565C25.3434 15.4287 25.4366 15.373 25.5584 15.2825C25.5584 15.2825 25.5584 15.2825 25.5656 15.2825C25.9311 15.0039 26.5403 14.3912 27.4864 13.0126C27.644 12.8106 27.8017 12.6087 27.9594 12.4068C28.2819 11.996 28.6331 11.606 28.9699 11.2161C28.9699 11.2161 29.0918 11.049 29.1061 11.2718C28.9628 11.8289 28.8194 12.3789 28.6904 12.936C28.5542 13.5487 28.3822 14.1614 28.5112 14.802C28.6044 15.2825 28.8839 15.5122 29.3928 15.5192C30.0665 15.5262 30.6542 15.2894 31.1917 14.9065C31.4354 14.7324 31.6647 14.5235 31.9227 14.3146C31.9012 14.5026 31.8797 14.6419 31.8726 14.7881C31.8582 15.0666 31.9514 15.2964 32.2022 15.4356C32.4746 15.5819 32.7398 15.5401 32.9548 15.3382C33.2271 15.0875 33.4851 14.8229 33.7217 14.5444C34.1015 14.0918 34.4599 13.6183 34.8254 13.1588C34.8827 13.3398 34.9472 13.5069 35.0189 13.6671C35.0476 13.7367 35.0691 13.8133 35.0977 13.8829C35.1909 14.064 35.3199 14.2659 35.4847 14.4678C36.1154 15.3034 36.9181 15.6654 37.4557 15.8186C37.4557 15.8186 37.4772 15.8256 37.5058 15.8325C37.513 15.8325 37.5202 15.8395 37.5273 15.8395C37.5488 15.8465 37.5703 15.8534 37.599 15.8604C37.7208 15.8882 37.8284 15.9091 37.9072 15.9231C38.4232 16.0066 39.3048 16.0623 40.0573 15.6654C40.1576 15.6167 40.2651 15.5679 40.3655 15.5053V15.4983C41.4907 15.5053 42.4582 15.0805 43.2323 14.2241C43.1606 14.7324 43.476 15.0318 44.035 15.1084C44.7015 15.1919 45.239 14.9065 45.7407 14.5444C46.1851 14.2171 46.5936 13.8481 47.0595 13.4651C46.6223 14.3703 46.1636 15.1919 45.5544 15.93C44.5797 17.1137 43.3469 17.6707 41.7702 17.427C41.3689 17.3644 41.1897 17.5663 41.2398 17.991C41.3187 18.6734 41.8562 19.1051 42.6374 19.119C43.5978 19.133 44.4722 18.8823 45.2677 18.367C46.3356 17.6777 47.1168 16.7447 47.6902 15.6585C48.2635 14.5653 48.758 13.4303 49.2812 12.3093C50.686 9.48931 50.6358 9.23168 50.6358 9.23168ZM41.4262 10.0742C41.5695 9.97671 41.849 9.92798 41.9709 9.9976C42.0927 10.0672 42.1429 10.3388 42.1286 10.5059C42.0497 11.3066 41.1538 11.9403 40.2221 11.8497C40.4586 11.1534 40.7812 10.5059 41.4262 10.0742ZM37.6277 3.82149C37.9144 3.37586 38.2154 2.95112 38.5092 2.63779C38.8031 2.32446 39.0897 2.13646 39.2976 2.11557H39.3048C39.3263 2.11557 39.3764 2.1295 39.4194 2.15735C39.4553 2.1852 39.4911 2.22698 39.4911 2.34535C39.4911 2.47068 39.4409 2.67957 39.2618 2.9929L39.2546 3.00683C39.1686 3.16698 38.4232 4.48993 36.5096 5.86163C36.7318 5.39511 37.1475 4.57349 37.6277 3.82149ZM22.9353 10.0881C22.7776 10.2343 22.5411 10.5198 22.4838 10.9028C22.4193 11.2231 22.4695 11.62 22.8063 12.0377C22.6343 12.553 22.3906 13.0265 22.0824 13.4791C21.9391 13.688 21.7456 13.876 21.5377 14.0291C21.2081 14.2728 20.8497 14.1336 20.7422 13.7506C20.7064 13.6323 20.692 13.5 20.6992 13.3746C20.7924 12.2606 21.1794 11.2509 21.8674 10.3597C21.9606 10.2413 22.0753 10.1438 22.1899 10.0533C22.4838 9.83049 22.7848 9.85138 22.9496 10.0812C22.9568 10.0742 22.9496 10.0812 22.9353 10.0881Z" fill="white"/>
<path d="M23.3404 18.4219L23.0251 17.9693V18.6586H22.8531V17.6908H23.0394L23.3404 18.1503L23.6415 17.6908H23.8278V18.6586H23.6558V17.9624L23.3404 18.4219Z" fill="white"/>
<path d="M25.039 18.6589H24.8527L24.7524 18.4222H24.2793L24.179 18.6589H23.9998L24.437 17.6841H24.6018L25.039 18.6589ZM24.5158 17.886L24.3438 18.2759H24.6878L24.5158 17.886Z" fill="white"/>
<path d="M25.8489 18.6591L25.6052 18.3179H25.3831V18.6591H25.2111V17.6913H25.6554C25.7127 17.6913 25.7629 17.6982 25.8131 17.7122C25.8561 17.7261 25.8991 17.747 25.9278 17.7748C25.9564 17.8027 25.9851 17.8305 25.9994 17.8723C26.0138 17.9141 26.0281 17.9559 26.0281 17.9977C26.0281 18.0394 26.0209 18.0742 26.0138 18.1091C25.9994 18.1439 25.9851 18.1717 25.9636 18.1926C25.9421 18.2205 25.9206 18.2344 25.8919 18.2553C25.8633 18.2692 25.8274 18.2831 25.7988 18.2971L26.0711 18.6661H25.8489V18.6591ZM25.7916 17.8862C25.7558 17.8584 25.7056 17.8445 25.6411 17.8445H25.3831V18.1717H25.6411C25.7056 18.1717 25.7558 18.1578 25.7916 18.1299C25.8274 18.1021 25.8489 18.0603 25.8489 18.0116C25.8489 17.9559 25.8274 17.9141 25.7916 17.8862Z" fill="white"/>
<path d="M27.1246 18.6589H26.9096L26.5727 18.2202L26.415 18.3734V18.6519H26.243V17.6841H26.415V18.1715L26.8881 17.6841H27.1031L26.6874 18.1019L27.1246 18.6589Z" fill="white"/>
<path d="M28.0133 17.8445H27.4472V18.0951H27.9488V18.2483H27.4472V18.5059H28.0205V18.6591H27.2751V17.6913H28.0133V17.8445V17.8445Z" fill="white"/>
<path d="M28.6512 18.6591H28.472V17.8514H28.1567V17.6913H28.9665V17.8514H28.6512V18.6591Z" fill="white"/>
<path d="M29.332 17.6913V18.6591H29.16V17.6913H29.332V17.6913Z" fill="white"/>
<path d="M30.2996 17.6913H30.4716V18.6591H30.3283L29.7764 17.9698V18.6591H29.6044V17.6913H29.7693L30.2996 18.3597V17.6913Z" fill="white"/>
<path d="M31.5323 18.5825C31.5036 18.6034 31.4678 18.6174 31.4391 18.6313C31.4033 18.6452 31.3675 18.6591 31.3245 18.6661C31.2815 18.6731 31.2456 18.68 31.2026 18.68C31.1238 18.68 31.0521 18.6661 30.9876 18.6452C30.9231 18.6174 30.873 18.5825 30.8228 18.5408C30.7798 18.499 30.7439 18.4433 30.7153 18.3806C30.6938 18.318 30.6794 18.2553 30.6794 18.1857C30.6794 18.116 30.6938 18.0534 30.7153 17.9907C30.7439 17.928 30.7726 17.8793 30.8228 17.8306C30.873 17.7818 30.9231 17.747 30.9876 17.7191C31.0521 17.6913 31.1166 17.6774 31.1955 17.6774C31.2385 17.6774 31.2815 17.6774 31.3173 17.6843C31.3531 17.6913 31.389 17.6983 31.4176 17.7122C31.4463 17.7261 31.475 17.74 31.5036 17.754C31.5323 17.7679 31.5538 17.7888 31.5825 17.8097L31.475 17.935C31.4535 17.9211 31.4391 17.9071 31.4176 17.8932C31.3961 17.8793 31.3746 17.8723 31.3531 17.8584C31.3316 17.8514 31.3101 17.8445 31.2815 17.8375C31.2528 17.8306 31.2241 17.8306 31.1955 17.8306C31.1525 17.8306 31.1095 17.8375 31.0665 17.8584C31.0235 17.8793 30.9948 17.9002 30.9661 17.935C30.9375 17.9698 30.916 18.0046 30.8945 18.0464C30.8801 18.0882 30.873 18.13 30.873 18.1787C30.873 18.2274 30.8801 18.2762 30.8945 18.318C30.9088 18.3597 30.9303 18.3945 30.9661 18.4294C30.9948 18.4572 31.0306 18.4851 31.0736 18.499C31.1166 18.5199 31.1596 18.5268 31.2098 18.5268C31.26 18.5268 31.303 18.5199 31.346 18.506C31.389 18.492 31.4248 18.4781 31.4535 18.4503V18.2692H31.1955V18.123H31.6183V18.5268C31.5897 18.5477 31.5682 18.5617 31.5323 18.5825Z" fill="white"/>
<path d="M33.1378 18.3667C33.1091 18.4294 33.0732 18.4781 33.0302 18.5199C32.9801 18.5617 32.9299 18.5965 32.8654 18.6243C32.8009 18.6522 32.7292 18.6591 32.6504 18.6591H32.2777V17.6913H32.6504C32.7292 17.6913 32.8009 17.7052 32.8654 17.7261C32.9299 17.754 32.9872 17.7818 33.0302 17.8305C33.0804 17.8723 33.1163 17.928 33.1378 17.9837C33.1664 18.0394 33.1736 18.1091 33.1736 18.1717C33.1736 18.2414 33.1593 18.304 33.1378 18.3667ZM32.9657 18.0464C32.9514 18.0046 32.9227 17.9698 32.8941 17.9419C32.8654 17.9141 32.8296 17.8862 32.7866 17.8723C32.7436 17.8584 32.6934 17.8445 32.6432 17.8445H32.4426V18.5059H32.6432C32.6934 18.5059 32.7436 18.499 32.7866 18.4851C32.8296 18.4711 32.8654 18.4433 32.8941 18.4154C32.9227 18.3876 32.9442 18.3528 32.9657 18.311C32.9801 18.2692 32.9944 18.2274 32.9944 18.1787C32.9944 18.1299 32.9801 18.0812 32.9657 18.0464Z" fill="white"/>
<path d="M33.5678 17.6913V18.6591H33.3958V17.6913H33.5678V17.6913Z" fill="white"/>
<path d="M34.6429 18.5825C34.6142 18.6034 34.5783 18.6174 34.5497 18.6313C34.5138 18.6452 34.478 18.6591 34.435 18.6661C34.392 18.6731 34.3562 18.68 34.3132 18.68C34.2343 18.68 34.1627 18.6661 34.0982 18.6452C34.0337 18.6174 33.9835 18.5825 33.9333 18.5408C33.8903 18.499 33.8545 18.4433 33.8258 18.3806C33.8043 18.318 33.79 18.2553 33.79 18.1857C33.79 18.116 33.8043 18.0534 33.8258 17.9907C33.8545 17.928 33.8831 17.8793 33.9333 17.8306C33.9835 17.7818 34.0337 17.747 34.0982 17.7191C34.1627 17.6913 34.2272 17.6774 34.306 17.6774C34.349 17.6774 34.392 17.6774 34.4278 17.6843C34.4637 17.6913 34.4995 17.6983 34.5282 17.7122C34.5568 17.7261 34.5855 17.74 34.6142 17.754C34.6429 17.7679 34.6644 17.7888 34.693 17.8097L34.5855 17.935C34.564 17.9211 34.5497 17.9071 34.5282 17.8932C34.5067 17.8793 34.4852 17.8723 34.4637 17.8584C34.4422 17.8445 34.4207 17.8445 34.392 17.8375C34.3633 17.8306 34.3347 17.8306 34.306 17.8306C34.263 17.8306 34.22 17.8375 34.177 17.8584C34.134 17.8793 34.1053 17.9002 34.0767 17.935C34.048 17.9698 34.0265 18.0046 34.005 18.0464C33.9907 18.0882 33.9835 18.13 33.9835 18.1787C33.9835 18.2274 33.9907 18.2762 34.005 18.318C34.0193 18.3597 34.0408 18.3945 34.0767 18.4294C34.1053 18.4572 34.1412 18.4851 34.1842 18.499C34.2272 18.5199 34.2702 18.5268 34.3203 18.5268C34.3705 18.5268 34.4135 18.5199 34.4565 18.506C34.4995 18.492 34.5353 18.4781 34.564 18.4503V18.2692H34.306V18.123H34.7289V18.5268C34.7002 18.5477 34.6787 18.5617 34.6429 18.5825Z" fill="white"/>
<path d="M35.1373 17.6913V18.6591H34.9653V17.6913H35.1373V17.6913Z" fill="white"/>
<path d="M35.8253 18.6591H35.6462V17.8514H35.3308V17.6913H36.1407V17.8514H35.8253V18.6591V18.6591Z" fill="white"/>
<path d="M37.1585 18.6589H36.9721L36.8718 18.4222H36.3988L36.2984 18.6589H36.1193L36.5564 17.6841H36.7213L37.1585 18.6589ZM36.6353 17.886L36.4633 18.2759H36.8073L36.6353 17.886Z" fill="white"/>
<path d="M37.3305 17.6913H37.5025V18.5059H38.0257V18.6591H37.3305V17.6913V17.6913Z" fill="white"/>
</svg>
