<svg width="142" height="50" viewBox="0 0 142 50" fill="none" xmlns="http://www.w3.org/2000/svg">
<path fill-rule="evenodd" clip-rule="evenodd" d="M21.5089 10.6855V15.121L26.8862 12.0968V5.04032L12.2908 0L0 5.04032V13.1048L21.5089 25.2016V29.4355L26.8862 27.4194V20.9677L8.25789 10.2823L12.6749 7.8629L21.5089 10.6855Z" fill="#00A1D3"/>
<path fill-rule="evenodd" clip-rule="evenodd" d="M5.37723 39.3145V34.879L0 37.9032V44.9596L14.5953 50L26.8862 44.9596V36.6935L5.37723 24.5967V20.1613L0 22.1774V28.629L18.6283 39.5161L14.2113 41.9354L5.37723 39.3145Z" fill="#2A335C"/>
<path d="M38.6406 19.3239C38.6406 20.1402 39.2168 20.7525 40.369 21.1606C40.9452 21.3647 41.3292 21.3647 41.9054 21.3647C42.4815 21.3647 42.8656 21.3647 43.4417 21.1606C44.594 20.7525 45.1701 20.1402 45.1701 19.3239C45.1701 18.7116 44.786 18.3035 44.0179 17.8953C43.6338 17.6912 42.6736 17.4871 41.5213 17.079C39.4088 16.4667 38.0645 16.0586 37.1043 15.4463C35.76 14.4259 35.1838 12.9974 35.1838 11.1606C35.1838 9.73205 35.5679 8.50756 36.3361 7.69123C37.1043 6.67082 38.0645 6.05858 39.4088 5.65041C40.177 5.44633 40.9452 5.24225 41.9054 5.24225C42.8656 5.24225 43.6338 5.44633 44.4019 5.65041C45.5542 6.05858 46.7065 6.67082 47.2826 7.48715C48.0508 8.50756 48.4349 9.73205 48.4349 10.9565H44.9781C44.9781 10.1402 44.4019 9.52796 43.2497 9.1198C42.8656 8.91572 42.2895 8.91572 41.7133 8.91572C41.1372 8.91572 40.7531 8.91572 40.177 9.1198C39.0247 9.52796 38.4486 10.1402 38.4486 10.9565C38.4486 11.5688 38.8327 11.9769 39.6009 12.3851C39.9849 12.5892 40.9452 12.7933 42.0974 13.2014C44.2099 13.8137 45.5542 14.2218 46.5144 14.8341C47.8587 15.8545 48.4349 17.2831 48.4349 19.1198C48.4349 20.5484 48.0508 21.7729 47.2826 22.5892C46.5144 23.4055 45.5542 24.2218 44.4019 24.63C43.6338 24.8341 42.6736 25.0382 41.9054 25.0382C40.9452 25.0382 40.177 24.8341 39.4088 24.63C38.0645 24.2218 37.1043 23.6096 36.3361 22.5892C35.5679 21.5688 35.1838 20.3443 35.1838 19.1198H38.6406V19.3239Z" fill="#2A335C" stroke="#2A335C" stroke-linecap="round" stroke-linejoin="round"/>
<path d="M49.9713 25.2421L58.8053 5.24207L67.6393 25.2421H63.7984L62.4541 22.1808H55.3485L54.0042 25.2421H49.9713ZM60.9178 19.1196L59.7655 16.6706C59.5734 16.0584 59.1894 15.2421 58.6132 13.8135C58.4212 14.0176 58.2291 14.6298 58.0371 15.2421C57.8451 15.8543 57.653 16.4666 57.461 16.6706L56.3087 19.1196H60.9178Z" fill="#2A335C" stroke="#2A335C" stroke-linecap="round" stroke-linejoin="round"/>
<path d="M69.7518 25.2421L72.2483 5.24207L81.0824 18.9155L89.9164 5.24207L92.413 25.2421H88.7641L87.6119 15.2421L81.0824 24.8339L74.5529 15.2421L73.4006 25.2421H69.7518V25.2421Z" fill="#2A335C" stroke="#2A335C" stroke-linecap="round" stroke-linejoin="round"/>
<path d="M99.3265 19.7319V25.2421H95.8697V5.24207H102.591C104.32 5.24207 105.664 5.65023 107.008 6.46656C108.161 7.28288 108.929 8.09921 109.505 9.3237C109.697 10.14 109.889 11.1604 109.889 12.1808C109.889 13.2013 109.697 14.2217 109.313 15.2421C108.545 17.0788 107.392 18.3033 105.664 19.1196C104.896 19.5278 103.936 19.7319 102.783 19.7319H99.3265V19.7319ZM99.3265 8.91554V15.8543H102.591C104.32 15.8543 105.472 15.038 106.048 13.6094C106.24 13.2012 106.432 12.589 106.432 12.1808C106.432 11.7727 106.432 11.3645 106.24 10.9564C105.664 9.73186 104.512 9.11962 102.783 9.11962H99.3265V8.91554Z" fill="#2A335C" stroke="#2A335C" stroke-linecap="round" stroke-linejoin="round"/>
<path d="M116.226 5.24207V21.3645H125.444V25.2421H112.77V5.24207H116.226Z" fill="#2A335C" stroke="#2A335C" stroke-linecap="round" stroke-linejoin="round"/>
<path d="M140.808 8.91554H132.358V12.9972H140.04V16.6706H132.358V21.3645H140.808V25.038H128.517V5.24207H140.808V8.91554Z" fill="#2A335C" stroke="#2A335C" stroke-linecap="round" stroke-linejoin="round"/>
<path d="M36.9122 40.6385C36.9122 41.6385 37.4884 42.4385 38.8327 42.8385C39.4088 43.0385 39.7929 43.0385 40.369 43.0385C40.9452 43.0385 41.5213 43.0385 41.9054 42.8385C43.2497 42.4385 43.8258 41.6385 43.8258 40.6385C43.8258 39.8386 43.4417 39.2386 42.6736 38.8386C42.2895 38.6386 41.3292 38.2386 40.177 38.0386C38.4486 37.6386 37.2963 37.2386 36.7202 36.8386C35.76 36.2386 35.1838 35.2387 35.1838 33.8387C35.1838 32.8387 35.5679 32.0388 36.1441 31.4388C36.7202 30.8388 37.4884 30.4388 38.4486 30.0388C39.0247 29.8388 39.7929 29.8388 40.5611 29.8388C41.3292 29.8388 41.9054 29.8388 42.6736 30.0388C43.6338 30.2388 44.4019 30.8388 44.9781 31.4388C45.5542 32.0388 45.9383 32.8387 45.9383 33.8387H44.2099C44.2099 32.8387 43.6338 32.0388 42.2895 31.6388C41.7133 31.4388 41.3292 31.4388 40.7531 31.4388C40.177 31.4388 39.6008 31.4388 39.2168 31.6388C37.8725 32.0388 37.2963 32.8387 37.2963 33.8387C37.2963 34.6387 37.6804 35.2387 38.4486 35.6387C38.8327 35.8387 39.7929 36.2386 40.9452 36.4386C42.6736 36.8386 43.8258 37.2386 44.4019 37.6386C45.3622 38.2386 45.9383 39.2386 45.9383 40.6385C45.9383 41.6385 45.5542 42.4385 44.9781 43.0385C44.4019 43.6385 43.6338 44.0385 42.6736 44.4384C42.0974 44.6384 41.3292 44.6384 40.5611 44.6384C39.7929 44.6384 39.2168 44.6384 38.4486 44.4384C37.4884 44.2384 36.7202 43.6385 36.1441 43.0385C35.5679 42.4385 35.1838 41.6385 35.1838 40.6385H36.9122Z" fill="#2A335C"/>
<path d="M60.1495 31.2391C61.3018 32.0391 62.07 33.039 62.6461 34.239C63.0302 35.239 63.2222 36.239 63.2222 37.2389C63.2222 38.2389 63.0302 39.2389 62.6461 40.2389C62.07 41.6388 61.3018 42.6388 60.1495 43.4388C58.9973 44.2388 57.4609 44.6388 55.7325 44.6388C54.0041 44.6388 52.6598 44.2388 51.3155 43.4388C50.1632 42.6388 49.3951 41.6388 48.8189 40.2389C48.4348 39.2389 48.2428 38.2389 48.2428 37.2389C48.2428 36.239 48.4348 35.239 48.8189 34.239C49.3951 33.039 50.1632 31.8391 51.3155 31.2391C52.4678 30.4391 54.0041 30.0391 55.7325 30.0391C57.4609 30.0391 58.9973 30.4391 60.1495 31.2391ZM59.1893 32.6391C58.2291 32.0391 57.0768 31.6391 55.7325 31.6391C54.3882 31.6391 53.2359 32.0391 52.2757 32.6391C51.5075 33.239 50.7394 34.039 50.3553 35.039C49.9712 35.839 49.9712 36.639 49.9712 37.4389C49.9712 38.2389 50.1632 39.0389 50.3553 39.8389C50.7394 40.8389 51.3155 41.6388 52.2757 42.2388C53.2359 42.8388 54.3882 43.2388 55.7325 43.2388C57.0768 43.2388 58.2291 42.8388 59.1893 42.2388C59.9575 41.6388 60.7256 40.8389 61.1097 39.8389C61.4938 39.0389 61.4938 38.2389 61.4938 37.4389C61.4938 36.639 61.3018 35.839 61.1097 35.039C60.7256 34.039 59.9575 33.239 59.1893 32.6391Z" fill="#2A335C"/>
<path d="M67.6393 30.0389V43.0386H75.7051V44.6386H65.9109V29.8389H67.6393V30.0389Z" fill="#2A335C"/>
<path d="M89.5323 30.0391V39.0389C89.5323 40.6389 88.9562 42.0388 87.8039 43.0388C86.6516 44.2388 85.3073 44.6388 83.771 44.6388C82.2346 44.6388 80.8903 44.0388 79.738 43.0388C78.5858 41.8388 78.0096 40.6389 78.0096 39.0389V30.0391H79.738V39.0389C79.738 40.2389 80.1221 41.2388 80.8903 42.0388C81.6585 42.8388 82.6187 43.2388 83.771 43.2388C84.9232 43.2388 85.8834 42.8388 86.6516 42.0388C87.4198 41.2388 87.8039 40.2389 87.8039 39.0389V30.0391H89.5323V30.0391Z" fill="#2A335C"/>
<path d="M98.1743 31.8387V44.8383H96.4459V31.8387H91.8369V30.2387H102.783V31.8387H98.1743Z" fill="#2A335C"/>
<path d="M107.2 30.0391V44.6388H105.472V30.0391H107.2V30.0391Z" fill="#2A335C"/>
<path d="M122.18 31.2391C123.332 32.0391 124.1 33.039 124.676 34.439C125.06 35.439 125.252 36.439 125.252 37.4389C125.252 38.4389 125.06 39.4389 124.676 40.4389C124.1 41.8388 123.332 42.8388 122.18 43.6388C121.027 44.4388 119.491 44.8388 117.763 44.8388C116.034 44.8388 114.69 44.4388 113.346 43.6388C112.193 42.8388 111.425 41.8388 110.849 40.4389C110.465 39.4389 110.273 38.4389 110.273 37.4389C110.273 36.439 110.465 35.439 110.849 34.439C111.425 33.039 112.193 32.0391 113.346 31.2391C114.498 30.4391 116.034 30.0391 117.763 30.0391C119.491 30.0391 121.027 30.4391 122.18 31.2391ZM121.22 32.6391C120.259 32.0391 119.107 31.6391 117.763 31.6391C116.418 31.6391 115.266 32.0391 114.306 32.6391C113.538 33.239 112.77 34.039 112.385 35.039C112.001 35.839 112.001 36.639 112.001 37.4389C112.001 38.2389 112.193 39.0389 112.385 39.8389C112.77 40.8389 113.346 41.6388 114.306 42.2388C115.266 42.8388 116.418 43.2388 117.763 43.2388C119.107 43.2388 120.259 42.8388 121.22 42.2388C121.988 41.6388 122.756 40.8389 123.14 39.8389C123.524 39.0389 123.524 38.2389 123.524 37.4389C123.524 36.639 123.332 35.839 123.14 35.039C122.756 34.039 121.988 33.239 121.22 32.6391Z" fill="#2A335C"/>
<path d="M128.133 44.8383V30.2387L139.272 40.6384V30.2387H141V44.8383L129.669 34.2386V44.6383H128.133V44.8383Z" fill="#2A335C"/>
</svg>
